<?xml version="1.0" encoding="UTF-8" standalone="no"?><svg xmlns="http://www.w3.org/2000/svg" xmlns:xlink="http://www.w3.org/1999/xlink" contentScriptType="application/ecmascript" contentStyleType="text/css" height="994px" preserveAspectRatio="none" style="width:2051px;height:994px;" version="1.1" viewBox="0 0 2051 994" width="2051px" zoomAndPan="magnify"><defs><filter height="300%" id="fep01r479y43c" width="300%" x="-1" y="-1"><feGaussianBlur result="blurOut" stdDeviation="2.0"/><feColorMatrix in="blurOut" result="blurOut2" type="matrix" values="0 0 0 0 0 0 0 0 0 0 0 0 0 0 0 0 0 0 .4 0"/><feOffset dx="4.0" dy="4.0" in="blurOut2" result="blurOut3"/><feBlend in="SourceGraphic" in2="blurOut3" mode="normal"/></filter></defs><g><text fill="#000000" font-family="sans-serif" font-size="14" font-weight="bold" lengthAdjust="spacingAndGlyphs" textLength="201" x="926" y="22.9951">Dubbo服务发布与注册时序图</text><rect fill="#FFFFFF" filter="url(#fep01r479y43c)" height="434.8594" style="stroke: #000000; stroke-width: 2.0;" width="1385.5" x="168.5" y="312.3906"/><rect fill="#FFFFFF" filter="url(#fep01r479y43c)" height="175.7969" style="stroke: #000000; stroke-width: 2.0;" width="1718.5" x="321.5" y="761.25"/><line style="stroke: #A80036; stroke-width: 1.0; stroke-dasharray: 5.0,5.0;" x1="64" x2="64" y1="68.5938" y2="954.0469"/><line style="stroke: #A80036; stroke-width: 1.0; stroke-dasharray: 5.0,5.0;" x1="249.5" x2="249.5" y1="68.5938" y2="954.0469"/><line style="stroke: #A80036; stroke-width: 1.0; stroke-dasharray: 5.0,5.0;" x1="396.5" x2="396.5" y1="68.5938" y2="954.0469"/><line style="stroke: #A80036; stroke-width: 1.0; stroke-dasharray: 5.0,5.0;" x1="533.5" x2="533.5" y1="68.5938" y2="954.0469"/><line style="stroke: #A80036; stroke-width: 1.0; stroke-dasharray: 5.0,5.0;" x1="653.5" x2="653.5" y1="68.5938" y2="954.0469"/><line style="stroke: #A80036; stroke-width: 1.0; stroke-dasharray: 5.0,5.0;" x1="783.5" x2="783.5" y1="68.5938" y2="954.0469"/><line style="stroke: #A80036; stroke-width: 1.0; stroke-dasharray: 5.0,5.0;" x1="917.5" x2="917.5" y1="68.5938" y2="954.0469"/><line style="stroke: #A80036; stroke-width: 1.0; stroke-dasharray: 5.0,5.0;" x1="1064.5" x2="1064.5" y1="68.5938" y2="954.0469"/><line style="stroke: #A80036; stroke-width: 1.0; stroke-dasharray: 5.0,5.0;" x1="1225.5" x2="1225.5" y1="68.5938" y2="954.0469"/><line style="stroke: #A80036; stroke-width: 1.0; stroke-dasharray: 5.0,5.0;" x1="1366" x2="1366" y1="68.5938" y2="954.0469"/><line style="stroke: #A80036; stroke-width: 1.0; stroke-dasharray: 5.0,5.0;" x1="1484" x2="1484" y1="68.5938" y2="954.0469"/><line style="stroke: #A80036; stroke-width: 1.0; stroke-dasharray: 5.0,5.0;" x1="1650" x2="1650" y1="68.5938" y2="954.0469"/><line style="stroke: #A80036; stroke-width: 1.0; stroke-dasharray: 5.0,5.0;" x1="1823" x2="1823" y1="68.5938" y2="954.0469"/><line style="stroke: #A80036; stroke-width: 1.0; stroke-dasharray: 5.0,5.0;" x1="1965" x2="1965" y1="68.5938" y2="954.0469"/><rect fill="#FEFECE" filter="url(#fep01r479y43c)" height="30.2969" style="stroke: #A80036; stroke-width: 1.5;" width="108" x="8" y="33.2969"/><text fill="#000000" font-family="sans-serif" font-size="14" lengthAdjust="spacingAndGlyphs" textLength="94" x="15" y="53.292">ServiceConfig</text><rect fill="#FEFECE" filter="url(#fep01r479y43c)" height="30.2969" style="stroke: #A80036; stroke-width: 1.5;" width="108" x="8" y="953.0469"/><text fill="#000000" font-family="sans-serif" font-size="14" lengthAdjust="spacingAndGlyphs" textLength="94" x="15" y="973.042">ServiceConfig</text><rect fill="#FEFECE" filter="url(#fep01r479y43c)" height="30.2969" style="stroke: #A80036; stroke-width: 1.5;" width="139" x="178.5" y="33.2969"/><text fill="#000000" font-family="sans-serif" font-size="14" lengthAdjust="spacingAndGlyphs" textLength="125" x="185.5" y="53.292">Protocol$Adaptive</text><rect fill="#FEFECE" filter="url(#fep01r479y43c)" height="30.2969" style="stroke: #A80036; stroke-width: 1.5;" width="139" x="178.5" y="953.0469"/><text fill="#000000" font-family="sans-serif" font-size="14" lengthAdjust="spacingAndGlyphs" textLength="125" x="185.5" y="973.042">Protocol$Adaptive</text><rect fill="#FEFECE" filter="url(#fep01r479y43c)" height="30.2969" style="stroke: #A80036; stroke-width: 1.5;" width="127" x="331.5" y="33.2969"/><text fill="#000000" font-family="sans-serif" font-size="14" lengthAdjust="spacingAndGlyphs" textLength="113" x="338.5" y="53.292">RegistryProtocol</text><rect fill="#FEFECE" filter="url(#fep01r479y43c)" height="30.2969" style="stroke: #A80036; stroke-width: 1.5;" width="127" x="331.5" y="953.0469"/><text fill="#000000" font-family="sans-serif" font-size="14" lengthAdjust="spacingAndGlyphs" textLength="113" x="338.5" y="973.042">RegistryProtocol</text><rect fill="#FEFECE" filter="url(#fep01r479y43c)" height="30.2969" style="stroke: #A80036; stroke-width: 1.5;" width="118" x="472.5" y="33.2969"/><text fill="#000000" font-family="sans-serif" font-size="14" lengthAdjust="spacingAndGlyphs" textLength="104" x="479.5" y="53.292">DubboProtocol</text><rect fill="#FEFECE" filter="url(#fep01r479y43c)" height="30.2969" style="stroke: #A80036; stroke-width: 1.5;" width="118" x="472.5" y="953.0469"/><text fill="#000000" font-family="sans-serif" font-size="14" lengthAdjust="spacingAndGlyphs" textLength="104" x="479.5" y="973.042">DubboProtocol</text><rect fill="#FEFECE" filter="url(#fep01r479y43c)" height="30.2969" style="stroke: #A80036; stroke-width: 1.5;" width="95" x="604.5" y="33.2969"/><text fill="#000000" font-family="sans-serif" font-size="14" lengthAdjust="spacingAndGlyphs" textLength="81" x="611.5" y="53.292">Exchangers</text><rect fill="#FEFECE" filter="url(#fep01r479y43c)" height="30.2969" style="stroke: #A80036; stroke-width: 1.5;" width="95" x="604.5" y="953.0469"/><text fill="#000000" font-family="sans-serif" font-size="14" lengthAdjust="spacingAndGlyphs" textLength="81" x="611.5" y="973.042">Exchangers</text><rect fill="#FEFECE" filter="url(#fep01r479y43c)" height="30.2969" style="stroke: #A80036; stroke-width: 1.5;" width="137" x="713.5" y="33.2969"/><text fill="#000000" font-family="sans-serif" font-size="14" lengthAdjust="spacingAndGlyphs" textLength="123" x="720.5" y="53.292">HeaderExchanger</text><rect fill="#FEFECE" filter="url(#fep01r479y43c)" height="30.2969" style="stroke: #A80036; stroke-width: 1.5;" width="137" x="713.5" y="953.0469"/><text fill="#000000" font-family="sans-serif" font-size="14" lengthAdjust="spacingAndGlyphs" textLength="123" x="720.5" y="973.042">HeaderExchanger</text><rect fill="#FEFECE" filter="url(#fep01r479y43c)" height="30.2969" style="stroke: #A80036; stroke-width: 1.5;" width="103" x="864.5" y="33.2969"/><text fill="#000000" font-family="sans-serif" font-size="14" lengthAdjust="spacingAndGlyphs" textLength="89" x="871.5" y="53.292">Transporters</text><rect fill="#FEFECE" filter="url(#fep01r479y43c)" height="30.2969" style="stroke: #A80036; stroke-width: 1.5;" width="103" x="864.5" y="953.0469"/><text fill="#000000" font-family="sans-serif" font-size="14" lengthAdjust="spacingAndGlyphs" textLength="89" x="871.5" y="973.042">Transporters</text><rect fill="#FEFECE" filter="url(#fep01r479y43c)" height="30.2969" style="stroke: #A80036; stroke-width: 1.5;" width="163" x="981.5" y="33.2969"/><text fill="#000000" font-family="sans-serif" font-size="14" lengthAdjust="spacingAndGlyphs" textLength="149" x="988.5" y="53.292">Transporter$Adaptive</text><rect fill="#FEFECE" filter="url(#fep01r479y43c)" height="30.2969" style="stroke: #A80036; stroke-width: 1.5;" width="163" x="981.5" y="953.0469"/><text fill="#000000" font-family="sans-serif" font-size="14" lengthAdjust="spacingAndGlyphs" textLength="149" x="988.5" y="973.042">Transporter$Adaptive</text><rect fill="#FEFECE" filter="url(#fep01r479y43c)" height="30.2969" style="stroke: #A80036; stroke-width: 1.5;" width="131" x="1158.5" y="33.2969"/><text fill="#000000" font-family="sans-serif" font-size="14" lengthAdjust="spacingAndGlyphs" textLength="117" x="1165.5" y="53.292">NettyTransporter</text><rect fill="#FEFECE" filter="url(#fep01r479y43c)" height="30.2969" style="stroke: #A80036; stroke-width: 1.5;" width="131" x="1158.5" y="953.0469"/><text fill="#000000" font-family="sans-serif" font-size="14" lengthAdjust="spacingAndGlyphs" textLength="117" x="1165.5" y="973.042">NettyTransporter</text><rect fill="#FEFECE" filter="url(#fep01r479y43c)" height="30.2969" style="stroke: #A80036; stroke-width: 1.5;" width="94" x="1317" y="33.2969"/><text fill="#000000" font-family="sans-serif" font-size="14" lengthAdjust="spacingAndGlyphs" textLength="80" x="1324" y="53.292">NettyServer</text><rect fill="#FEFECE" filter="url(#fep01r479y43c)" height="30.2969" style="stroke: #A80036; stroke-width: 1.5;" width="94" x="1317" y="953.0469"/><text fill="#000000" font-family="sans-serif" font-size="14" lengthAdjust="spacingAndGlyphs" textLength="80" x="1324" y="973.042">NettyServer</text><rect fill="#FEFECE" filter="url(#fep01r479y43c)" height="30.2969" style="stroke: #A80036; stroke-width: 1.5;" width="115" x="1425" y="33.2969"/><text fill="#000000" font-family="sans-serif" font-size="14" lengthAdjust="spacingAndGlyphs" textLength="101" x="1432" y="53.292">AbstractServer</text><rect fill="#FEFECE" filter="url(#fep01r479y43c)" height="30.2969" style="stroke: #A80036; stroke-width: 1.5;" width="115" x="1425" y="953.0469"/><text fill="#000000" font-family="sans-serif" font-size="14" lengthAdjust="spacingAndGlyphs" textLength="101" x="1432" y="973.042">AbstractServer</text><rect fill="#FEFECE" filter="url(#fep01r479y43c)" height="30.2969" style="stroke: #A80036; stroke-width: 1.5;" width="188" x="1554" y="33.2969"/><text fill="#000000" font-family="sans-serif" font-size="14" lengthAdjust="spacingAndGlyphs" textLength="174" x="1561" y="53.292">RegistryFactory$Adaptive</text><rect fill="#FEFECE" filter="url(#fep01r479y43c)" height="30.2969" style="stroke: #A80036; stroke-width: 1.5;" width="188" x="1554" y="953.0469"/><text fill="#000000" font-family="sans-serif" font-size="14" lengthAdjust="spacingAndGlyphs" textLength="174" x="1561" y="973.042">RegistryFactory$Adaptive</text><rect fill="#FEFECE" filter="url(#fep01r479y43c)" height="30.2969" style="stroke: #A80036; stroke-width: 1.5;" width="131" x="1756" y="33.2969"/><text fill="#000000" font-family="sans-serif" font-size="14" lengthAdjust="spacingAndGlyphs" textLength="117" x="1763" y="53.292">MulticastRegistry</text><rect fill="#FEFECE" filter="url(#fep01r479y43c)" height="30.2969" style="stroke: #A80036; stroke-width: 1.5;" width="131" x="1756" y="953.0469"/><text fill="#000000" font-family="sans-serif" font-size="14" lengthAdjust="spacingAndGlyphs" textLength="117" x="1763" y="973.042">MulticastRegistry</text><rect fill="#FEFECE" filter="url(#fep01r479y43c)" height="30.2969" style="stroke: #A80036; stroke-width: 1.5;" width="125" x="1901" y="33.2969"/><text fill="#000000" font-family="sans-serif" font-size="14" lengthAdjust="spacingAndGlyphs" textLength="111" x="1908" y="53.292">FailbackRegistry</text><rect fill="#FEFECE" filter="url(#fep01r479y43c)" height="30.2969" style="stroke: #A80036; stroke-width: 1.5;" width="125" x="1901" y="953.0469"/><text fill="#000000" font-family="sans-serif" font-size="14" lengthAdjust="spacingAndGlyphs" textLength="111" x="1908" y="973.042">FailbackRegistry</text><line style="stroke: #A80036; stroke-width: 1.0;" x1="64" x2="106" y1="99.7266" y2="99.7266"/><line style="stroke: #A80036; stroke-width: 1.0;" x1="106" x2="106" y1="99.7266" y2="112.7266"/><line style="stroke: #A80036; stroke-width: 1.0;" x1="65" x2="106" y1="112.7266" y2="112.7266"/><polygon fill="#A80036" points="75,108.7266,65,112.7266,75,116.7266,71,112.7266" style="stroke: #A80036; stroke-width: 1.0;"/><text fill="#000000" font-family="sans-serif" font-size="13" lengthAdjust="spacingAndGlyphs" textLength="51" x="71" y="94.6606">export()</text><line style="stroke: #A80036; stroke-width: 1.0;" x1="64" x2="106" y1="141.8594" y2="141.8594"/><line style="stroke: #A80036; stroke-width: 1.0;" x1="106" x2="106" y1="141.8594" y2="154.8594"/><line style="stroke: #A80036; stroke-width: 1.0;" x1="65" x2="106" y1="154.8594" y2="154.8594"/><polygon fill="#A80036" points="75,150.8594,65,154.8594,75,158.8594,71,154.8594" style="stroke: #A80036; stroke-width: 1.0;"/><text fill="#000000" font-family="sans-serif" font-size="13" lengthAdjust="spacingAndGlyphs" textLength="67" x="71" y="136.7935">doExport()</text><line style="stroke: #A80036; stroke-width: 1.0;" x1="64" x2="106" y1="183.9922" y2="183.9922"/><line style="stroke: #A80036; stroke-width: 1.0;" x1="106" x2="106" y1="183.9922" y2="196.9922"/><line style="stroke: #A80036; stroke-width: 1.0;" x1="65" x2="106" y1="196.9922" y2="196.9922"/><polygon fill="#A80036" points="75,192.9922,65,196.9922,75,200.9922,71,196.9922" style="stroke: #A80036; stroke-width: 1.0;"/><text fill="#000000" font-family="sans-serif" font-size="13" lengthAdjust="spacingAndGlyphs" textLength="92" x="71" y="178.9263">doExportUrls()</text><line style="stroke: #A80036; stroke-width: 1.0;" x1="64" x2="106" y1="226.125" y2="226.125"/><line style="stroke: #A80036; stroke-width: 1.0;" x1="106" x2="106" y1="226.125" y2="239.125"/><line style="stroke: #A80036; stroke-width: 1.0;" x1="65" x2="106" y1="239.125" y2="239.125"/><polygon fill="#A80036" points="75,235.125,65,239.125,75,243.125,71,239.125" style="stroke: #A80036; stroke-width: 1.0;"/><text fill="#000000" font-family="sans-serif" font-size="13" lengthAdjust="spacingAndGlyphs" textLength="172" x="71" y="221.0591">doExportUrlsFor1Protocol()</text><polygon fill="#A80036" points="238,264.2578,248,268.2578,238,272.2578,242,268.2578" style="stroke: #A80036; stroke-width: 1.0;"/><line style="stroke: #A80036; stroke-width: 1.0;" x1="64" x2="244" y1="268.2578" y2="268.2578"/><text fill="#000000" font-family="sans-serif" font-size="13" lengthAdjust="spacingAndGlyphs" textLength="51" x="71" y="263.1919">export()</text><polygon fill="#A80036" points="385,293.3906,395,297.3906,385,301.3906,389,297.3906" style="stroke: #A80036; stroke-width: 1.0;"/><line style="stroke: #A80036; stroke-width: 1.0;" x1="250" x2="391" y1="297.3906" y2="297.3906"/><text fill="#000000" font-family="sans-serif" font-size="13" lengthAdjust="spacingAndGlyphs" textLength="51" x="257" y="292.3247">export()</text><path d="M168.5,312.3906 L318.5,312.3906 L318.5,319.3906 L308.5,329.3906 L168.5,329.3906 L168.5,312.3906 " fill="#EEEEEE" style="stroke: #000000; stroke-width: 1.0;"/><rect fill="none" height="434.8594" style="stroke: #000000; stroke-width: 2.0;" width="1385.5" x="168.5" y="312.3906"/><text fill="#000000" font-family="sans-serif" font-size="13" font-weight="bold" lengthAdjust="spacingAndGlyphs" textLength="105" x="183.5" y="325.4575">service export</text><line style="stroke: #A80036; stroke-width: 1.0;" x1="397" x2="439" y1="350.6563" y2="350.6563"/><line style="stroke: #A80036; stroke-width: 1.0;" x1="439" x2="439" y1="350.6563" y2="363.6563"/><line style="stroke: #A80036; stroke-width: 1.0;" x1="398" x2="439" y1="363.6563" y2="363.6563"/><polygon fill="#A80036" points="408,359.6563,398,363.6563,408,367.6563,404,363.6563" style="stroke: #A80036; stroke-width: 1.0;"/><text fill="#000000" font-family="sans-serif" font-size="13" lengthAdjust="spacingAndGlyphs" textLength="100" x="404" y="345.5903">doLocalExport()</text><polygon fill="#A80036" points="261,388.7891,251,392.7891,261,396.7891,257,392.7891" style="stroke: #A80036; stroke-width: 1.0;"/><line style="stroke: #A80036; stroke-width: 1.0;" x1="255" x2="396" y1="392.7891" y2="392.7891"/><text fill="#000000" font-family="sans-serif" font-size="13" lengthAdjust="spacingAndGlyphs" textLength="51" x="267" y="387.7231">export()</text><polygon fill="#A80036" points="521.5,417.9219,531.5,421.9219,521.5,425.9219,525.5,421.9219" style="stroke: #A80036; stroke-width: 1.0;"/><line style="stroke: #A80036; stroke-width: 1.0;" x1="250" x2="527.5" y1="421.9219" y2="421.9219"/><text fill="#000000" font-family="sans-serif" font-size="13" lengthAdjust="spacingAndGlyphs" textLength="51" x="257" y="416.856">export()</text><line style="stroke: #A80036; stroke-width: 1.0;" x1="533.5" x2="575.5" y1="451.0547" y2="451.0547"/><line style="stroke: #A80036; stroke-width: 1.0;" x1="575.5" x2="575.5" y1="451.0547" y2="464.0547"/><line style="stroke: #A80036; stroke-width: 1.0;" x1="534.5" x2="575.5" y1="464.0547" y2="464.0547"/><polygon fill="#A80036" points="544.5,460.0547,534.5,464.0547,544.5,468.0547,540.5,464.0547" style="stroke: #A80036; stroke-width: 1.0;"/><text fill="#000000" font-family="sans-serif" font-size="13" lengthAdjust="spacingAndGlyphs" textLength="89" x="540.5" y="445.9888">opernServer()</text><line style="stroke: #A80036; stroke-width: 1.0;" x1="533.5" x2="575.5" y1="493.1875" y2="493.1875"/><line style="stroke: #A80036; stroke-width: 1.0;" x1="575.5" x2="575.5" y1="493.1875" y2="506.1875"/><line style="stroke: #A80036; stroke-width: 1.0;" x1="534.5" x2="575.5" y1="506.1875" y2="506.1875"/><polygon fill="#A80036" points="544.5,502.1875,534.5,506.1875,544.5,510.1875,540.5,506.1875" style="stroke: #A80036; stroke-width: 1.0;"/><text fill="#000000" font-family="sans-serif" font-size="13" lengthAdjust="spacingAndGlyphs" textLength="93" x="540.5" y="488.1216">createServer()</text><polygon fill="#A80036" points="642,531.3203,652,535.3203,642,539.3203,646,535.3203" style="stroke: #A80036; stroke-width: 1.0;"/><line style="stroke: #A80036; stroke-width: 1.0;" x1="533.5" x2="648" y1="535.3203" y2="535.3203"/><text fill="#000000" font-family="sans-serif" font-size="13" lengthAdjust="spacingAndGlyphs" textLength="37" x="540.5" y="530.2544">bind()</text><polygon fill="#A80036" points="772,560.4531,782,564.4531,772,568.4531,776,564.4531" style="stroke: #A80036; stroke-width: 1.0;"/><line style="stroke: #A80036; stroke-width: 1.0;" x1="654" x2="778" y1="564.4531" y2="564.4531"/><text fill="#000000" font-family="sans-serif" font-size="13" lengthAdjust="spacingAndGlyphs" textLength="37" x="661" y="559.3872">bind()</text><polygon fill="#A80036" points="906,589.5859,916,593.5859,906,597.5859,910,593.5859" style="stroke: #A80036; stroke-width: 1.0;"/><line style="stroke: #A80036; stroke-width: 1.0;" x1="784" x2="912" y1="593.5859" y2="593.5859"/><text fill="#000000" font-family="sans-serif" font-size="13" lengthAdjust="spacingAndGlyphs" textLength="37" x="791" y="588.52">bind()</text><polygon fill="#A80036" points="1053,618.7188,1063,622.7188,1053,626.7188,1057,622.7188" style="stroke: #A80036; stroke-width: 1.0;"/><line style="stroke: #A80036; stroke-width: 1.0;" x1="918" x2="1059" y1="622.7188" y2="622.7188"/><text fill="#000000" font-family="sans-serif" font-size="13" lengthAdjust="spacingAndGlyphs" textLength="37" x="925" y="617.6528">bind()</text><polygon fill="#A80036" points="1214,647.8516,1224,651.8516,1214,655.8516,1218,651.8516" style="stroke: #A80036; stroke-width: 1.0;"/><line style="stroke: #A80036; stroke-width: 1.0;" x1="1065" x2="1220" y1="651.8516" y2="651.8516"/><text fill="#000000" font-family="sans-serif" font-size="13" lengthAdjust="spacingAndGlyphs" textLength="37" x="1072" y="646.7856">bind()</text><polygon fill="#A80036" points="1354,676.9844,1364,680.9844,1354,684.9844,1358,680.9844" style="stroke: #A80036; stroke-width: 1.0;"/><line style="stroke: #A80036; stroke-width: 1.0;" x1="1226" x2="1360" y1="680.9844" y2="680.9844"/><text fill="#000000" font-family="sans-serif" font-size="13" lengthAdjust="spacingAndGlyphs" textLength="116" x="1233" y="675.9185">new NettyServer()</text><polygon fill="#A80036" points="1472.5,706.1172,1482.5,710.1172,1472.5,714.1172,1476.5,710.1172" style="stroke: #A80036; stroke-width: 1.0;"/><line style="stroke: #A80036; stroke-width: 1.0;" x1="1366" x2="1478.5" y1="710.1172" y2="710.1172"/><text fill="#000000" font-family="sans-serif" font-size="13" lengthAdjust="spacingAndGlyphs" textLength="46" x="1373" y="705.0513">super()</text><polygon fill="#A80036" points="1377,735.25,1367,739.25,1377,743.25,1373,739.25" style="stroke: #A80036; stroke-width: 1.0;"/><line style="stroke: #A80036; stroke-width: 1.0;" x1="1371" x2="1483.5" y1="739.25" y2="739.25"/><text fill="#000000" font-family="sans-serif" font-size="13" lengthAdjust="spacingAndGlyphs" textLength="60" x="1383" y="734.1841">doOpen()</text><path d="M321.5,761.25 L480.5,761.25 L480.5,768.25 L470.5,778.25 L321.5,778.25 L321.5,761.25 " fill="#EEEEEE" style="stroke: #000000; stroke-width: 1.0;"/><rect fill="none" height="175.7969" style="stroke: #000000; stroke-width: 2.0;" width="1718.5" x="321.5" y="761.25"/><text fill="#000000" font-family="sans-serif" font-size="13" font-weight="bold" lengthAdjust="spacingAndGlyphs" textLength="114" x="336.5" y="774.3169">service registry</text><line style="stroke: #A80036; stroke-width: 1.0;" x1="397" x2="439" y1="799.5156" y2="799.5156"/><line style="stroke: #A80036; stroke-width: 1.0;" x1="439" x2="439" y1="799.5156" y2="812.5156"/><line style="stroke: #A80036; stroke-width: 1.0;" x1="398" x2="439" y1="812.5156" y2="812.5156"/><polygon fill="#A80036" points="408,808.5156,398,812.5156,408,816.5156,404,812.5156" style="stroke: #A80036; stroke-width: 1.0;"/><text fill="#000000" font-family="sans-serif" font-size="13" lengthAdjust="spacingAndGlyphs" textLength="59" x="404" y="794.4497">register()</text><polygon fill="#A80036" points="1638,837.6484,1648,841.6484,1638,845.6484,1642,841.6484" style="stroke: #A80036; stroke-width: 1.0;"/><line style="stroke: #A80036; stroke-width: 1.0;" x1="397" x2="1644" y1="841.6484" y2="841.6484"/><text fill="#000000" font-family="sans-serif" font-size="13" lengthAdjust="spacingAndGlyphs" textLength="59" x="404" y="836.5825">register()</text><polygon fill="#A80036" points="1811.5,866.7813,1821.5,870.7813,1811.5,874.7813,1815.5,870.7813" style="stroke: #A80036; stroke-width: 1.0;"/><line style="stroke: #A80036; stroke-width: 1.0;" x1="1650" x2="1817.5" y1="870.7813" y2="870.7813"/><text fill="#000000" font-family="sans-serif" font-size="13" lengthAdjust="spacingAndGlyphs" textLength="59" x="1657" y="865.7153">register()</text><polygon fill="#A80036" points="1953.5,895.9141,1963.5,899.9141,1953.5,903.9141,1957.5,899.9141" style="stroke: #A80036; stroke-width: 1.0;"/><line style="stroke: #A80036; stroke-width: 1.0;" x1="1823.5" x2="1959.5" y1="899.9141" y2="899.9141"/><text fill="#000000" font-family="sans-serif" font-size="13" lengthAdjust="spacingAndGlyphs" textLength="59" x="1830.5" y="894.8481">register()</text><polygon fill="#A80036" points="1834.5,925.0469,1824.5,929.0469,1834.5,933.0469,1830.5,929.0469" style="stroke: #A80036; stroke-width: 1.0;"/><line style="stroke: #A80036; stroke-width: 1.0;" x1="1828.5" x2="1964.5" y1="929.0469" y2="929.0469"/><text fill="#000000" font-family="sans-serif" font-size="13" lengthAdjust="spacingAndGlyphs" textLength="78" x="1840.5" y="923.981">doRegister()</text><!--
@startuml
title Dubbo服务发布与注册时序图
ServiceConfig -> ServiceConfig: export()
ServiceConfig -> ServiceConfig: doExport()
ServiceConfig -> ServiceConfig: doExportUrls()
ServiceConfig -> ServiceConfig: doExportUrlsFor1Protocol()

ServiceConfig -> "Protocol$Adaptive": export()
"Protocol$Adaptive" -> RegistryProtocol: export()

group service export
    RegistryProtocol -> RegistryProtocol: doLocalExport()
    RegistryProtocol -> "Protocol$Adaptive": export()
    "Protocol$Adaptive" -> DubboProtocol: export()
    DubboProtocol -> DubboProtocol: opernServer()
    DubboProtocol -> DubboProtocol: createServer()
    DubboProtocol -> Exchangers: bind()
    Exchangers -> HeaderExchanger: bind()
    HeaderExchanger -> Transporters: bind()
    Transporters -> "Transporter$Adaptive": bind()
    "Transporter$Adaptive" -> NettyTransporter: bind()
    NettyTransporter -> NettyServer: new NettyServer()
    NettyServer -> AbstractServer: super()
    AbstractServer -> NettyServer: doOpen()
end 

group service registry
    RegistryProtocol -> RegistryProtocol: register()
    RegistryProtocol -> "RegistryFactory$Adaptive": register()
    "RegistryFactory$Adaptive" -> MulticastRegistry: register()
    MulticastRegistry -> FailbackRegistry: register()
    FailbackRegistry -> MulticastRegistry: doRegister()
end

@enduml

PlantUML version 1.2019.06(Sat May 25 01:10:25 CST 2019)
(GPL source distribution)
Java Runtime: Java(TM) SE Runtime Environment
JVM: Java HotSpot(TM) 64-Bit Server VM
Java Version: 1.8.0_201-b09
Operating System: Linux
OS Version: 4.15.0-52-generic
Default Encoding: UTF-8
Language: en
Country: US
--></g></svg>